<?xml version="1.0" encoding="utf-8"?>
<!-- Generator: Adobe Illustrator 24.0.1, SVG Export Plug-In . SVG Version: 6.00 Build 0)  -->
<svg version="1.1" id="Layer_1" xmlns="http://www.w3.org/2000/svg" xmlns:xlink="http://www.w3.org/1999/xlink" x="0px" y="0px"
	 viewBox="0 0 679.8 555.9" style="enable-background:new 0 0 679.8 555.9;" xml:space="preserve">
<style type="text/css">
	.st0{fill:#172B86;}
</style>
<title>goku-face-002</title>
<path class="st0" d="M601.1,421.7c-23-6.1-45.9-12.2-70.7-18.8c51-28.6,100.2-56.2,149.4-83.8c-0.2-0.5-0.4-1-0.6-1.6
	c-34.1-2.1-68.2-4.1-104.2-6.3c21.1-19,40.6-36.6,61.5-55.4c-47.2,3.6-92.1,7.1-137.4,10.5c-14.3-43.4-45.8-66.9-87.5-78.1
	c1-36-5.5-71.8-19.2-105c-9.5-23.4-23.6-42.8-47.4-53.3c-11.7-5.1-23.5-10.3-35.6-14c-18.9-5.8-38.1-10.5-58.5-16
	c16.6,51.3,31.1,101.2,23.6,155.7c-3.8-2.2-5.4-6-8.2-8.7c-24.4-23.4-51.2-43.3-83-55.6c-15.8-6.1-31.8-9.8-49-5.5
	C85.5,98.3,42.6,122.4,0,149c1.2,1.4,1.5,2,2,2.2c3,1.7,5.9,3.4,8.9,5c41.8,23,80.9,49.8,113.2,85.3c16.3,17.9,30,37.6,37.9,61.3
	c-53.9,9.7-100.7,34.6-149.5,61.6c55.1,12.1,107.7,23.7,156.9,50.8c-22.1,12.8-42.9,24.7-65.2,37.6c8.7,0.9,15.4,1.6,22,2.3
	c31.9,3.3,64,5.9,95.8,10.1c8.6,1.2,17.2,6.1,20.4,16.4c1.4,4.6,3.9,8.8,7.3,12.3c15.4,15.1,31,30,47.1,44.3
	c20.6,18.3,45.6,21.8,70.3,13.2c14.9-5.2,28.5-16.4,40.6-27.2c13.8-12.4,25-27.5,37.7-41.2c2-1.8,4.5-2.9,7.2-3
	c17.6-0.8,35.2-1.4,52.8-1.9c7.1-0.2,14.3,0,21.4,0c0-0.8,0.1-1.6,0.1-2.4c-12-5.9-24-11.8-37.8-18.5
	c38.7-11.6,75.4-22.5,112.1-33.5L601.1,421.7z M447.4,335.7c1,3.5,3.4,7.3,2.8,10.5c-2.5,13.9-5.9,27.7-9.1,41.5
	c-0.4,1.9-1,3.9-1.8,6.3l-4.7-7.5l-34.7,19.4C417.8,384,433.7,360.5,447.4,335.7z M295.8,328.8v82.8l-32.8-18.3
	C263.2,351.8,270.2,338.9,295.8,328.8z M470.9,435.1c-5.6,8.5-12.6,16.1-18.9,24c-0.5,0.7-1.2,1.6-1.9,1.7
	c-12.8,1-12.1,12.3-16.1,20.3c-2.2,4.3-5.2,8.1-8.9,11.3c-17.5,15.3-33.9,32.2-53.2,44.9c-17.7,11.7-38.9,10.6-57.5-0.3
	c-22.3-13-40.6-31.1-57-50.8c-4.8-5.8-6.6-14.2-10.2-22.3c-25.1-7.3-47.7-47-29-81.2c7.3,8.1,14.4,16,23.5,26.1
	c-0.7-9.5-1.2-16.5-1.9-25.7c3,2.7,5.8,5.2,8.6,7.6l-6.1,9.7l89.1,41.9l-1.7-12l-30.2-16.9c25.4-38.7,53.4-74.9,94.4-101.8
	c7.2,35-0.1,67.3-4.7,100.1L356,430.4l-1.7,12l89.1-41.9l-2-3.1c5.5-3.5,10.3-6.5,16.5-10.4c-3.8,8.8-6.7,15.6-9.6,22.3
	c0.4,0.4,0.7,0.8,1.1,1.2c8-5.4,16-10.7,25.7-17.3C475.3,408.5,479.3,422.5,470.9,435.1L470.9,435.1z"/>
</svg>
